<svg width="102" height="101" viewBox="0 0 102 101" fill="none" xmlns="http://www.w3.org/2000/svg">
<path d="M0 77.3497C0.530664 74.4964 1.32789 71.7395 2.84584 69.2268C3.85534 67.5583 5.06229 66.0527 6.43461 64.6779C14.1157 56.9895 21.8041 49.3084 29.4852 41.6224C34.2142 36.8909 39.9183 34.6399 46.5923 35.1607C51.7188 35.5605 56.1467 37.656 59.7651 41.3361C61.3719 42.9701 61.3793 45.495 59.9033 47.1487C58.3558 48.8839 55.9147 49.1554 54.0586 47.6498C52.4716 46.3614 50.9265 45.0409 48.9396 44.4066C44.2302 42.9059 39.8689 43.6291 36.332 47.0895C28.0931 55.1457 19.9406 63.2933 11.8893 71.5395C8.43385 75.0789 7.62675 79.4896 9.28292 84.1447C10.9243 88.7528 14.2909 91.5246 19.1607 92.2897C23.3418 92.9487 26.9404 91.6751 29.9319 88.7059C33.7083 84.9592 37.4649 81.1952 41.2165 77.4237C42.4729 76.1625 43.8995 75.4023 45.7185 75.7848C48.5743 76.3846 49.9737 79.5908 48.5027 82.1133C48.3052 82.4515 48.0782 82.7871 47.8017 83.0586C43.4626 87.3558 39.2913 91.8208 34.7819 95.9427C31.7954 98.6725 28.1943 100.195 24.2156 100.852C24.023 100.884 23.8379 100.946 23.6503 100.995C21.9423 100.995 20.2343 100.995 18.5263 100.995C18.3684 100.951 18.2153 100.891 18.0549 100.867C11.5092 99.8646 6.50866 96.5104 2.98159 90.9322C1.34517 88.3431 0.4813 85.4725 0 82.4737C0 80.7657 0 79.0577 0 77.3497Z" fill="#0B0E2C"/>
<path d="M0 32.6135C0.861403 30.3156 2.53978 29.3554 4.96603 29.3924C8.87319 29.4517 12.7828 29.3776 16.69 29.4221C19.7678 29.4566 21.7671 32.1445 20.918 35.0101C20.4269 36.6638 18.8694 37.9645 17.1392 37.9793C12.7384 38.0213 8.33759 38.046 3.93925 37.9719C1.89064 37.9374 0.67382 36.6366 0 34.7805C0 34.0598 0 33.3366 0 32.6135Z" fill="#0B0E2C"/>
<path d="M66.217 100.998C63.808 99.993 62.996 98.7811 62.996 96.1722C62.9935 92.265 62.9886 88.3554 62.9985 84.4482C63.0059 81.8023 64.7904 79.8919 67.2487 79.8722C69.6922 79.8524 71.5631 81.7801 71.5804 84.4087C71.6051 88.2838 71.5434 92.1614 71.6051 96.034C71.6421 98.4602 70.682 100.139 68.3841 101C67.6609 100.998 66.9377 100.998 66.217 100.998Z" fill="#0B0E2C"/>
<path d="M53.6612 68.3679C47.9448 68.3259 43.043 66.2674 38.9211 62.3356C37.2156 60.7066 37.0897 58.0878 38.5805 56.3675C40.1527 54.5484 42.6777 54.2794 44.5733 55.8936C46.3454 57.4041 48.1744 58.774 50.4673 59.3293C55.1866 60.4721 59.3035 59.3367 62.7491 55.8985C69.9291 48.7308 77.1017 41.5508 84.2743 34.3758C85.8293 32.8208 87.4336 31.3078 88.9244 29.6936C92.143 26.2085 93.187 22.0989 91.8295 17.5624C90.4621 12.9888 87.3324 10.0417 82.6675 8.96807C78.1705 7.93389 74.2164 9.15812 70.9386 12.4137C66.4193 16.9033 61.9272 21.4202 57.4203 25.9222C56.4281 26.9144 55.3667 27.756 53.8488 27.7585C52.0667 27.761 50.7388 26.9983 49.912 25.4483C49.0703 23.8711 49.3122 22.3359 50.3044 20.8994C50.5093 20.6057 50.766 20.344 51.0202 20.0898C55.5913 15.5137 60.1501 10.9229 64.7459 6.36905C69.4182 1.73623 75.0803 -0.502431 81.626 0.0948749C89.3564 0.798313 95.1739 4.70548 98.7059 11.6337C102.919 19.8997 101.364 29.3925 94.7691 36.0764C86.1428 44.8187 77.4374 53.4821 68.7247 62.1357C64.5065 66.3291 59.4171 68.3629 53.6612 68.3679Z" fill="#0B0E2C"/>
<path d="M29.5617 25.3421C29.416 27.0477 28.6854 28.4422 27.0293 29.2098C25.3312 29.9972 23.7466 29.7034 22.3668 28.5039C21.4289 27.6894 20.5823 26.7638 19.7012 25.8827C16.3617 22.5432 13.0123 19.2111 9.69014 15.8544C8.44123 14.5931 7.95499 13.085 8.55477 11.3523C9.1496 9.63941 10.401 8.67681 12.1806 8.43987C13.4986 8.26462 14.666 8.71137 15.5916 9.62954C19.8542 13.8551 24.0921 18.1054 28.33 22.3581C29.1223 23.1578 29.4654 24.1771 29.5617 25.3421Z" fill="#0B0E2C"/>
<path d="M92.5873 88.4911C92.4886 90.1127 91.7432 91.5023 90.0821 92.2601C88.4333 93.0129 86.8586 92.7784 85.4887 91.6134C84.615 90.8729 83.84 90.0165 83.0255 89.2044C79.5897 85.7712 76.1318 82.3576 72.7306 78.8898C70.4154 76.5277 71.2201 72.8032 74.2411 71.7444C76.0799 71.1002 77.6448 71.6456 78.9875 72.9957C82.9959 77.0165 87.0141 81.0273 91.0274 85.0455C91.2347 85.2553 91.4396 85.47 91.6247 85.6996C92.2467 86.4697 92.5379 87.3607 92.5873 88.4911Z" fill="#0B0E2C"/>
<path d="M37.9067 10.5798C37.9067 12.6481 37.9191 14.7165 37.9043 16.7848C37.8845 19.3246 36.0358 21.2301 33.6195 21.2251C31.2549 21.2227 29.3544 19.3419 29.3297 16.8515C29.2902 12.6827 29.2828 8.51389 29.3322 4.34509C29.3618 1.79791 31.2697 -0.00388151 33.7404 0.0356098C36.1148 0.075101 37.8895 1.9534 37.9067 4.47591C37.9166 6.50971 37.9067 8.54351 37.9067 10.5798Z" fill="#0B0E2C"/>
<path d="M90.4079 71.6777C88.2729 71.6777 86.1379 71.7246 84.0078 71.6654C81.7568 71.6012 80.0094 69.9228 79.7922 67.7336C79.5898 65.6973 80.9473 63.7696 82.9959 63.234C83.4031 63.1279 83.8375 63.1007 84.2596 63.1007C88.3297 63.0909 92.4022 63.0859 96.4723 63.0983C99.0614 63.1057 100.942 64.8828 100.967 67.3065C100.992 69.8044 99.1453 71.6234 96.5142 71.6876C96.4476 71.6901 96.3834 71.6901 96.3168 71.6901C94.3472 71.6901 92.3775 71.6901 90.4079 71.6901C90.4079 71.6827 90.4079 71.6802 90.4079 71.6777Z" fill="#0B0E2C"/>
</svg>
