<svg width="100" height="100" viewBox="0 0 100 100" fill="none" xmlns="http://www.w3.org/2000/svg">
<path d="M-0.000488281 58.9781C0.328154 58.3126 0.57594 57.5897 1.0037 56.9947C2.07831 55.5045 3.62762 54.9513 5.42211 54.9591C7.99126 54.9695 10.5578 54.9617 13.2469 54.9617C13.2652 54.5728 13.2913 54.231 13.2939 53.8917C13.2965 51.1253 13.2939 48.359 13.2965 45.5926C13.3017 40.5166 16.2725 37.2074 21.3091 36.6672C21.3717 36.6594 21.4343 36.6307 21.6169 36.5758C21.6325 36.2757 21.6612 35.9338 21.6612 35.592C21.6691 32.9561 21.6534 30.3176 21.6769 27.6817C21.7995 14.2727 32.0213 2.45829 45.2922 0.367865C60.6836 -2.054 74.7657 7.70915 77.7887 22.9763C78.1721 24.9049 78.2138 26.9145 78.2764 28.8927C78.3573 31.4268 78.2947 33.9661 78.2947 36.5811C78.8737 36.6594 79.4189 36.6959 79.9457 36.8081C83.9155 37.672 86.6151 40.9681 86.6568 45.042C86.6855 47.9388 86.662 50.8356 86.6646 53.7325C86.6646 54.0874 86.6646 54.4397 86.6646 54.9017C87.0637 54.9225 87.4028 54.9565 87.7445 54.9565C89.9902 54.9617 92.2333 54.9982 94.479 54.9513C98.248 54.8704 100.066 57.809 99.9981 60.5101C99.8625 65.8131 99.9616 71.1214 99.9564 76.4271C99.9538 79.5405 97.9011 81.6231 94.7816 81.6544C92.1785 81.6805 89.5781 81.6701 86.975 81.6779C86.915 81.6779 86.8577 81.7171 86.6646 81.7876C86.6646 82.2129 86.6646 82.6879 86.6646 83.1629C86.6646 85.7988 86.6672 88.4372 86.6646 91.0731C86.6594 95.6454 84.3224 98.6754 79.8988 99.8472C79.8101 99.8707 79.7371 99.9463 79.6562 99.9985C59.8724 99.9985 40.0887 99.9985 20.3023 99.9985C20.2215 99.9463 20.1484 99.8707 20.0597 99.8472C15.6439 98.678 13.2991 95.6507 13.2939 91.1018C13.2913 88.3094 13.2939 85.5169 13.2913 82.7245C13.2913 82.3852 13.26 82.0433 13.2417 81.6571C10.5969 81.6571 8.06951 81.6675 5.53949 81.6492C4.92915 81.644 4.30056 81.6231 3.71109 81.4822C1.71576 81.0046 0.672446 79.5431 -0.000488281 77.732C-0.000488281 71.4789 -0.000488281 65.2285 -0.000488281 58.9781ZM50.0419 58.3622C35.1773 58.3622 20.3128 58.3622 5.44559 58.3648C3.9041 58.3648 3.33028 58.9364 3.32767 60.4814C3.32245 65.6879 3.32245 70.897 3.32767 76.1035C3.33028 77.7554 3.9041 78.3218 5.56818 78.3218C35.1669 78.3218 64.7682 78.3218 94.3669 78.3218C96.0779 78.3218 96.6335 77.7633 96.6335 76.0304C96.6361 70.9544 96.6361 65.8758 96.6335 60.7998C96.6335 58.8424 96.1666 58.3648 94.2443 58.3648C79.5101 58.3622 64.776 58.3622 50.0419 58.3622ZM83.2348 81.7354C61.0201 81.7354 38.8941 81.7354 16.7238 81.7354C16.7055 82.0955 16.6768 82.3852 16.6768 82.6723C16.6742 85.5039 16.6638 88.3355 16.6768 91.1671C16.6925 94.6563 18.7191 96.6711 22.209 96.6711C40.7173 96.6737 59.2256 96.6737 77.7313 96.6711C81.229 96.6711 83.2582 94.6668 83.2765 91.1801C83.2921 88.3485 83.2817 85.5169 83.2791 82.6853C83.2817 82.3695 83.253 82.0537 83.2348 81.7354ZM83.2582 54.9095C83.2582 51.4411 83.3469 48.0928 83.2295 44.7497C83.1278 41.8815 80.9969 40.0155 78.0834 40.0155C59.4134 40.0103 40.7434 40.0129 22.0759 40.0129C18.7504 40.0129 16.7159 42.0042 16.6846 45.3316C16.656 48.2598 16.6768 51.1906 16.682 54.1187C16.682 54.3693 16.7316 54.6172 16.7629 54.9095C38.928 54.9095 61.0331 54.9095 83.2582 54.9095ZM34.9478 36.5785C45.0653 36.5785 54.9715 36.5785 64.8047 36.5785C64.8047 33.0344 65.162 29.5164 64.7317 26.0976C63.8083 18.7902 57.658 13.7586 50.7122 13.3332C44.2228 12.9339 37.736 17.3079 35.7276 23.7253C34.4131 27.9245 35.2164 32.2436 34.9478 36.5785ZM75.0787 36.6019C74.9691 32.6847 75.1595 28.8457 74.7031 25.0876C73.099 11.8195 61.1844 2.30954 47.8744 3.45001C37.4361 4.34516 28.7662 11.5273 25.9336 21.5827C24.5564 26.4708 25.0755 31.4607 25.0259 36.4219C25.0259 36.4715 25.0911 36.5237 25.1433 36.5993C27.2612 36.5993 29.3948 36.5993 31.6379 36.5993C31.6379 34.963 31.6066 33.3789 31.6457 31.7947C31.7005 29.5869 31.5492 27.332 31.9378 25.1816C33.8132 14.8103 43.3569 8.37465 53.7169 10.3502C61.1609 11.77 67.3817 18.3675 68.0989 25.881C68.4015 29.044 68.2607 32.2488 68.3206 35.4328C68.3285 35.8086 68.3206 36.187 68.3206 36.6019C70.5898 36.6019 72.7208 36.6019 75.0787 36.6019Z" fill="#0B0E2C"/>
<path d="M51.7737 71.5598C51.5442 73.0238 52.1233 74.8246 49.9506 74.9733C48.7951 75.0516 48.5004 74.4331 48.19 71.5885C47.5536 72.0008 46.9693 72.3714 46.3903 72.7524C45.1852 73.5432 44.1784 73.4806 43.5812 72.5697C43.0021 71.6876 43.3308 70.756 44.4914 69.9756C45.2192 69.4876 45.9495 68.9996 46.6746 68.5089C46.7215 68.475 46.745 68.4046 46.8363 68.2636C45.9912 67.6947 45.1383 67.131 44.2958 66.5516C43.2864 65.86 43.0256 64.8996 43.602 64.0619C44.1915 63.2033 45.1148 63.0911 46.166 63.7592C46.7946 64.1611 47.4179 64.5734 48.0465 64.9753C48.0648 64.9884 48.1065 64.9675 48.2265 64.9492C48.4221 63.6339 47.8353 61.5983 50.1384 61.734C52.1441 61.8514 51.5573 63.6861 51.7581 65.1006C52.4389 64.6517 53.0492 64.2498 53.6595 63.8505C54.828 63.0859 55.7774 63.1694 56.3774 64.088C56.9381 64.9492 56.6356 65.894 55.5584 66.6299C54.7602 67.1754 53.9569 67.713 53.0388 68.3315C53.923 68.9239 54.7289 69.4563 55.5271 69.9965C56.6408 70.7481 56.9564 71.7555 56.3591 72.6141C55.7722 73.4571 54.7837 73.538 53.696 72.8281C53.0935 72.4366 52.5041 72.0426 51.7737 71.5598Z" fill="#0B0E2C"/>
<path d="M70.1021 71.565C69.8386 73.0108 70.4646 74.8429 68.2632 74.9733C67.0999 75.0412 66.7791 74.3653 66.5339 71.5728C65.8167 72.0374 65.1568 72.4654 64.4943 72.8881C63.4666 73.5432 62.4963 73.4284 61.9251 72.5906C61.3617 71.7633 61.6382 70.7794 62.6372 70.1009C63.4666 69.5372 64.3039 68.9839 65.2663 68.3393C64.2439 67.6503 63.2475 67.1075 62.4259 66.3689C62.0138 65.9983 61.6878 65.2415 61.753 64.7117C61.813 64.2341 62.3816 63.6678 62.8667 63.4408C63.2371 63.2685 63.8787 63.4617 64.3065 63.6783C65.0498 64.0541 65.7202 64.5708 66.6122 65.1528C66.6122 64.456 66.5861 63.9262 66.6174 63.3964C66.6774 62.3734 67.3295 61.7027 68.2502 61.6766C69.197 61.6479 69.8751 62.2559 69.9769 63.2868C70.029 63.8322 69.9873 64.3855 69.9873 65.1684C70.7411 64.6726 71.3227 64.2942 71.8992 63.9105C73.1355 63.0911 74.0901 63.1485 74.7057 64.0828C75.303 64.991 74.9665 65.9096 73.7328 66.7421C72.9842 67.2458 72.233 67.7469 71.3775 68.321C72.2017 68.8821 72.9451 69.3911 73.691 69.8947C74.9795 70.7638 75.3238 71.6981 74.6874 72.6141C74.0797 73.491 73.0781 73.5275 71.8574 72.7185C71.3175 72.361 70.7776 72.0086 70.1021 71.565Z" fill="#0B0E2C"/>
<path d="M29.8799 65.1058C30.1068 63.6469 29.4965 61.8853 31.6274 61.6922C32.8168 61.5852 33.1246 62.2089 33.4402 65.0797C34.1548 64.6125 34.8173 64.1741 35.4877 63.7435C36.5258 63.078 37.4778 63.2085 38.0412 64.0854C38.5654 64.9022 38.3203 65.8704 37.3839 66.5229C36.5388 67.1127 35.6729 67.6738 34.7078 68.3184C35.6259 68.9343 36.4579 69.4824 37.2795 70.0487C38.3281 70.7742 38.6072 71.779 38.0125 72.6141C37.4256 73.4414 36.4736 73.5327 35.4329 72.8594C34.7887 72.4419 34.147 72.0217 33.4271 71.5519C33.2159 72.9586 33.8105 74.8455 31.7474 74.9342C29.5043 75.0282 30.1016 73.0186 29.8773 71.5467C29.0844 72.0713 28.4219 72.5254 27.7437 72.9508C26.7865 73.5484 25.7927 73.3918 25.2554 72.5802C24.7155 71.7633 24.9607 70.7977 25.897 70.14C26.7213 69.5633 27.5611 69.0074 28.3958 68.4411C28.4192 68.4254 28.4245 68.3863 28.4897 68.2532C27.6602 67.6921 26.8099 67.1257 25.9701 66.549C24.9555 65.8522 24.6894 64.9022 25.2632 64.0619C25.8501 63.2032 26.7813 63.0832 27.8272 63.7487C28.4818 64.1689 29.1183 64.6047 29.8799 65.1058Z" fill="#0B0E2C"/>
<path d="M15.091 71.5415C14.864 72.9795 15.5135 74.9838 13.2678 74.9368C11.1446 74.8924 11.8098 72.9795 11.5907 71.5441C10.8447 72.0295 10.1848 72.4653 9.51969 72.8881C8.49986 73.5379 7.50089 73.4231 6.94533 72.5984C6.3689 71.745 6.6219 70.8029 7.63652 70.1061C8.46334 69.5372 9.3032 68.9891 10.2813 68.3341C9.27451 67.6529 8.28076 67.1101 7.45916 66.3741C7.03922 66.0009 6.66102 65.2415 6.74449 64.7352C6.82795 64.2263 7.43307 63.6391 7.94951 63.4199C8.34597 63.2528 9.00847 63.5164 9.46753 63.7513C10.1744 64.1114 10.8082 64.6125 11.5933 65.1345C11.815 63.6652 11.1394 61.6452 13.4165 61.7261C15.5083 61.7992 14.8901 63.6834 15.0675 65.1162C15.8526 64.6021 16.5386 64.1375 17.2402 63.6965C18.1948 63.0962 19.0894 63.2163 19.6581 63.9992C20.2319 64.79 20.0441 65.8078 19.1442 66.4602C18.2835 67.084 17.3836 67.6555 16.3873 68.3288C17.3054 68.9447 18.1348 69.4954 18.9564 70.0591C19.9997 70.7768 20.2814 71.7842 19.6867 72.6193C19.0973 73.4466 18.1453 73.5406 17.1072 72.8672C16.4629 72.4471 15.8213 72.0217 15.091 71.5415Z" fill="#0B0E2C"/>
<path d="M86.5864 74.9916C84.9954 74.9916 83.4043 75.002 81.8133 74.989C80.6839 74.9785 79.9536 74.3 79.9666 73.3057C79.9796 72.3453 80.6787 71.6798 81.7637 71.6746C85.011 71.6615 88.2583 71.6615 91.5082 71.6746C92.5854 71.6798 93.2975 72.3505 93.3105 73.3031C93.3262 74.2896 92.5854 74.9785 91.4613 74.989C89.8337 75.002 88.2114 74.9916 86.5864 74.9916Z" fill="#0B0E2C"/>
<path d="M23.3644 46.6625C23.3644 47.6881 23.3748 48.6198 23.3618 49.5515C23.3409 50.8982 22.6576 51.7176 21.609 51.6785C20.597 51.6419 19.9632 50.8407 19.9528 49.5515C19.9423 48.1214 19.9345 46.6938 19.9554 45.2637C19.9762 43.9692 20.5944 43.3455 21.8672 43.3298C23.3931 43.3116 24.9189 43.3142 26.4448 43.3298C27.6368 43.3429 28.3019 43.9483 28.3071 44.974C28.3149 46.0205 27.6002 46.6468 26.3717 46.6573C25.4067 46.6703 24.439 46.6625 23.3644 46.6625Z" fill="#0B0E2C"/>
</svg>
