<svg width="30" height="20" viewBox="0 0 30 20" fill="none" xmlns="http://www.w3.org/2000/svg">
<path d="M0.000732994 9.22982C2.13961 6.31543 4.74834 3.91194 7.86576 2.07946C9.60296 1.0584 11.464 0.343727 13.4776 0.093776C15.8481 -0.200888 18.116 0.210322 20.29 1.16615C22.6363 2.1982 24.6829 3.67519 26.5557 5.41165C27.6456 6.42172 28.6432 7.51461 29.5697 8.67421C29.7398 8.88678 29.9216 9.09788 29.9721 9.37715C30.0403 9.74951 29.9069 10.061 29.6789 10.3513C28.5259 11.821 27.2491 13.1719 25.8381 14.3967C24.1639 15.8502 22.3505 17.0897 20.3157 17.9825C18.7317 18.6774 17.0832 19.0959 15.3408 19.1472C13.0216 19.2154 10.8674 18.629 8.82012 17.5896C5.43589 15.8707 2.70548 13.3734 0.35257 10.4334C0.225029 10.2743 0.117279 10.0992 0 9.93203C0.000732994 9.6982 0.000732994 9.46438 0.000732994 9.22982ZM15.1635 17.1227C15.4105 17.1476 15.8283 17.0905 16.2417 17.034C18.0859 16.7819 19.7725 16.0914 21.3573 15.1385C23.7395 13.7062 25.7413 11.8371 27.5423 9.73852C27.6683 9.59192 27.6148 9.51422 27.5144 9.39768C26.4648 8.17504 25.3404 7.02644 24.1001 5.99585C22.4868 4.65447 20.7511 3.51173 18.7705 2.77507C17.1667 2.17841 15.519 1.90061 13.8103 2.11537C12.3055 2.30449 10.8938 2.79926 9.55312 3.49927C6.75161 4.96233 4.46687 7.04916 2.42328 9.42553C2.31553 9.55087 2.32799 9.62637 2.42988 9.74438C4.3987 12.0269 6.59035 14.0456 9.25552 15.5006C11.0426 16.4755 12.9308 17.1014 15.1635 17.1227Z" fill="white" fill-opacity="0.55"/>
<path d="M20.9563 9.58626C20.8823 12.925 18.3263 15.5396 14.9861 15.5389C11.5923 15.5389 9.00705 12.8664 9.02611 9.5628C9.0459 6.14045 11.736 3.61015 14.9949 3.62408C18.385 3.63801 20.8926 6.29731 20.9563 9.58626ZM18.8885 9.58626C18.8893 7.42099 17.155 5.67793 14.9949 5.675C12.8274 5.67207 11.0814 7.40413 11.077 9.56134C11.0726 11.7442 12.8084 13.4873 14.9854 13.4865C17.1484 13.4873 18.8878 11.7486 18.8885 9.58626Z" fill="white" fill-opacity="0.55"/>
</svg>
